<?xml version="1.0" encoding="UTF-8"?>
<svg width="128px" height="138px" viewBox="0 0 128 138" version="1.1" xmlns="http://www.w3.org/2000/svg" xmlns:xlink="http://www.w3.org/1999/xlink">
    <!-- Generator: Sketch 48.1 (47250) - http://www.bohemiancoding.com/sketch -->
    <title>download</title>
    <desc>Created with Sketch.</desc>
    <defs></defs>
    <g id="Artboard" stroke="none" stroke-width="1" fill="none" fill-rule="evenodd" transform="translate(-896.000000, -1441.000000)">
        <g id="download" transform="translate(896.000000, 1441.000000)" fill-rule="nonzero">
            <path d="M128,19.2944228 L123.312746,23.9961089 L119.110381,19.7808042 L114.746386,23.9961089 L110.059133,19.2944228 L114.423127,15.079118 L110.059133,10.7016861 L114.746386,6 L119.110381,10.3774319 L123.312746,6 L128,10.7016861 L123.797635,15.079118 L128,19.2944228 Z M22.9408673,126.298314 L18.2536137,131 L14.0512484,126.784695 L9.68725361,131 L5,126.298314 L9.36399474,122.083009 L5,117.705577 L9.68725361,113.003891 L14.0512484,117.381323 L18.2536137,113.003891 L22.9408673,117.705577 L18.738502,122.083009 L22.9408673,126.298314 Z" id="Shape" fill="#D0D1D2"></path>
            <path d="M96.4054054,67.0468941 L120,41.4876706 L70.9086486,41.4876706 L88.5016216,0 L26.6837838,0 L0,74.2651059 L41.8183784,74.2651059 L30.9081081,138 L59.3951351,107.139953 C58.6864627,104.374086 58.3446061,101.526842 58.3783784,98.6716235 L40.9994595,117.501318 L49.5113514,67.7726118 L9.22702703,67.7726118 L31.2437838,6.49411765 L78.7005405,6.49411765 L61.1091892,47.9817882 L105.173514,47.9817882 L87.9,66.6945882 C90.7390041,66.4425773 93.5986953,66.5615529 96.407027,67.0485176 L96.4054054,67.0468941 Z" id="Shape" fill="#151922"></path>
            <path d="M90,125 C104.360125,125 116,113.360125 116,99 C116,84.639875 104.360125,73 90,73 C75.639875,73 64,84.639875 64,99 C64,113.360125 75.639875,125 90,125 Z M92.1125,86 L87.725,86 L87.725,79.5 L92.1125,79.5 L92.1125,86 Z M103,96.8875 L109.5,96.8875 L109.5,101.275 L103,101.275 L103,96.8875 Z M83.5,99 C83.5,95.425 86.425,92.5 90,92.5 C90.975,92.5 91.95,92.825 92.7625,93.15 L102.35,83.5625 L105.4375,86.65 L95.85,96.2375 C96.175,97.05 96.5,98.025 96.5,99 C96.5,102.575 93.575,105.5 90,105.5 C86.425,105.5 83.5,102.575 83.5,99 Z M79.275,91.3625 L74.725,86.8125 L77.8125,83.725 L82.3625,88.275 L79.275,91.3625 Z M70.5,101.1125 L70.5,96.725 L77,96.725 L77,101.1125 L70.5,101.1125 Z" id="Shape" fill="#F64F64"></path>
        </g>
    </g>
</svg>