<?xml version="1.0" encoding="UTF-8"?>
<svg width="140px" height="133px" viewBox="0 0 140 133" version="1.1" xmlns="http://www.w3.org/2000/svg" xmlns:xlink="http://www.w3.org/1999/xlink">
    <!-- Generator: Sketch 48.1 (47250) - http://www.bohemiancoding.com/sketch -->
    <title>download</title>
    <desc>Created with Sketch.</desc>
    <defs></defs>
    <g id="Artboard" stroke="none" stroke-width="1" fill="none" fill-rule="evenodd" transform="translate(-1369.000000, -1447.000000)">
        <g id="download" transform="translate(1369.000000, 1447.000000)" fill-rule="nonzero">
            <path d="M15.3972603,112.320988 L41.0410959,112.320988 L41.0410959,118 L15.3972603,118 L15.3972603,112.320988 Z M9.69863014,8.67901235 L9.69863014,15.7777778 L4,15.7777778 L4,3 L16.8219178,3 L16.8219178,8.67901235 L9.69863014,8.67901235 Z M102.30137,8.67901235 L95.1780822,8.67901235 L95.1780822,3 L108,3 L108,15.7777778 L102.30137,15.7777778 L102.30137,8.67901235 Z M9.69863014,68.308642 L16.8219178,68.308642 L16.8219178,73.9876543 L4,73.9876543 L4,61.2098765 L9.69863014,61.2098765 L9.69863014,68.308642 Z M102.30137,68.308642 L102.30137,61.2098765 L108,61.2098765 L108,73.9876543 L95.1780822,73.9876543 L95.1780822,68.308642 L102.30137,68.308642 Z" id="Shape" fill="#D0D1D2"></path>
            <path d="M5.6969697,105.867935 L5.6969697,125.304348 L80.4084545,125.304348 L80.4084545,131 L0,131 L0,105.867935 C0,99.6497065 3.72439394,94.0437609 9.51393939,91.5490652 C22.1683333,86.0954783 38.9245455,82.5869565 59.9819697,82.5869565 C67.1117273,82.5869565 73.8170606,82.9885 80.1022424,83.7502935 L82.9293636,84.0934565 L82.244303,89.7463913 L79.4157576,89.4046522 C73.3584545,88.669913 66.8824242,88.2826087 59.9805455,88.2826087 C39.7064545,88.2826087 23.7150606,91.6288043 11.7699394,96.7790978 C8.05836364,98.3781522 5.6969697,101.933663 5.6969697,105.867935 Z M52.6969697,96.826087 C52.6969697,95.253276 53.9722798,93.9782609 55.5454545,93.9782609 C57.1186293,93.9782609 58.3939394,95.253276 58.3939394,96.826087 C58.3939394,98.3988979 57.1186293,99.673913 55.5454545,99.673913 C53.9722798,99.673913 52.6969697,98.3988979 52.6969697,96.826087 Z M52.6969697,106.793478 C52.6969697,105.220667 53.9722798,103.945652 55.5454545,103.945652 C57.1186293,103.945652 58.3939394,105.220667 58.3939394,106.793478 C58.3939394,108.366289 57.1186293,109.641304 55.5454545,109.641304 C53.9722798,109.641304 52.6969697,108.366289 52.6969697,106.793478 Z M52.6969697,116.76087 C52.6969697,115.188059 53.9722798,113.913043 55.5454545,113.913043 C57.1186293,113.913043 58.3939394,115.188059 58.3939394,116.76087 C58.3939394,118.33368 57.1186293,119.608696 55.5454545,119.608696 C53.9722798,119.608696 52.6969697,118.33368 52.6969697,116.76087 Z M56.2575758,75.4673913 C35.4123636,75.4673913 18.5151515,58.574087 18.5151515,37.7336957 C18.5151515,16.8933043 35.4123636,0 56.2575758,0 C77.1027879,0 94,16.8933043 94,37.7336957 C94,58.574087 77.1027879,75.4673913 56.2575758,75.4673913 Z M56.2575758,69.7717391 C73.9552121,69.7717391 88.3030303,55.4272391 88.3030303,37.7336957 C88.3030303,20.0401522 73.9552121,5.69565217 56.2575758,5.69565217 C38.5599394,5.69565217 24.2121212,20.0401522 24.2121212,37.7336957 C24.2121212,55.4272391 38.5599394,69.7717391 56.2575758,69.7717391 Z" id="Shape" fill="#151922"></path>
            <path d="M131.398135,85 L122.003587,94.2171261 C118.953372,92.781349 115.537303,91.9424047 111.999283,91.9424047 C96.8701578,91.9424047 84.6707317,108.700176 84.1829268,109.298416 C83.9390244,109.537713 83.9390244,110.016305 84.1829268,110.376657 C84.4268293,110.735601 88.4526542,116.242229 94.5530846,120.909912 L85.2804878,130.00739 L88.330703,133 L134.326399,87.8715543 L131.398135,85 Z M101.383788,109.898065 C101.388537,104.14762 106.139581,99.4875623 112.000717,99.4844575 C113.340746,99.4844575 114.683644,99.7237537 115.903156,100.202346 L102.11693,113.608563 C101.62882,112.430355 101.380253,111.16987 101.385222,109.898065 L101.383788,109.898065 Z M139.817073,110.376657 C139.329268,111.094545 127.005022,127.732669 111.999283,127.732669 C108.583214,127.732669 105.411047,126.895132 102.482783,125.579003 L108.583214,119.593783 C109.680775,119.952727 110.778336,120.192023 111.999283,120.192023 C117.859299,120.187366 122.608596,115.527763 122.613343,109.778416 C122.613343,108.581935 122.36944,107.503695 122.003587,106.426862 L129.690818,98.8848094 C135.667862,103.5539 139.573171,108.819824 139.817073,109.180176 C140.060976,109.658768 140.060976,110.017713 139.817073,110.376657 Z" id="Shape" fill="#F64F64"></path>
        </g>
    </g>
</svg>