<?xml version="1.0" encoding="UTF-8"?>
<svg width="139px" height="139px" viewBox="0 0 139 139" version="1.1" xmlns="http://www.w3.org/2000/svg" xmlns:xlink="http://www.w3.org/1999/xlink">
    <!-- Generator: Sketch 48.1 (47250) - http://www.bohemiancoding.com/sketch -->
    <title>download</title>
    <desc>Created with Sketch.</desc>
    <defs>
        <path d="M61.1849721,63.8653705 C52.9871187,54.7115432 38.8829079,54.7115432 30.7887282,63.8653705 C21.7370906,71.8530253 21.7370906,85.9536813 30.7887282,94.7203519 L45.9876125,110.147059 L61.1849721,94.7203519 C70.271676,85.9536813 70.271676,71.8530253 61.1849721,63.8669379 L61.1849721,63.8653705 Z M45.9876125,86.304787 C42.1181403,86.304787 39.0780585,83.2200726 39.0780585,79.2936449 C39.0780585,75.3656498 42.1181403,72.2809354 45.9876125,72.2809354 C49.8555601,72.2809354 52.8941172,75.3656498 52.8941172,79.2936449 C52.8941172,83.2200726 49.8555601,86.304787 45.9876125,86.304787 Z" id="path-1"></path>
    </defs>
    <g id="Artboard" stroke="none" stroke-width="1" fill="none" fill-rule="evenodd" transform="translate(-416.000000, -1770.000000)">
        <g id="download" transform="translate(416.000000, 1770.000000)" fill-rule="nonzero">
            <path d="M91.7959024,14.7871786 C90.6342983,17.1734976 89.8449738,19.7307963 89.4565366,22.3663904 C84.4073171,13.584767 77.9986341,7.75198857 71.0243902,6.43057216 L71.0243902,33.1803677 L90.0659512,33.1803677 C90.6254634,35.3023616 91.4420488,37.3810809 92.5187317,39.3624328 L71.0243902,39.3624328 L71.0243902,66.4089675 L100.471366,66.4089675 C100.308066,59.7957811 99.5656376,53.2108262 98.2529756,46.7329999 L105.617366,54.1638421 C106.110341,58.1280913 106.415805,62.2206184 106.518634,66.4089675 L129.922878,66.4089675 C129.971268,67.4336448 130,68.4629586 130,69.5 C130,70.5370414 129.971268,71.5663552 129.922878,72.5910325 L106.518634,72.5910325 C106.282732,82.2474182 104.962585,91.395329 102.762341,99.6375672 L122.528244,99.6375672 C121.388405,101.770294 120.1297,103.834379 118.758341,105.819632 L100.88722,105.819632 C97.5331707,115.67539 92.8559512,123.899082 87.3016585,129.705586 C74.7645016,133.921667 61.2354984,133.921667 48.6983415,129.705586 C43.145561,123.899082 38.4668293,115.67539 35.1127805,105.819632 L17.2416585,105.819632 C15.8703004,103.834379 14.6115951,101.770294 13.4717561,99.6375672 L33.2376585,99.6375672 C31.0374146,91.395329 29.7172683,82.2474182 29.4813659,72.5910325 L6.07712195,72.5910325 C6.02708475,71.5614726 6.00136994,70.5308283 6,69.5 C6,68.4629586 6.02873171,67.4336448 6.07712195,66.4089675 L29.4813659,66.4089675 C29.7172683,56.7525818 31.0374146,47.604671 33.2376585,39.3624328 L13.4717561,39.3624328 C14.6115951,37.2297057 15.8703004,35.165621 17.2416585,33.1803677 L35.1127805,33.1803677 C38.4668293,23.3246105 43.145561,15.1009184 48.6983415,9.29441381 C61.2354984,5.07833265 74.7645016,5.07833265 87.3016585,9.29441381 C88.9309551,11.0088842 90.4331829,12.8448736 91.7959024,14.7871786 Z M96.4549756,99.6375672 C98.7837561,91.4772413 100.218829,82.2814195 100.471366,72.5910325 L71.0243902,72.5910325 L71.0243902,99.6375672 L96.4549756,99.6375672 Z M71.0243902,132.569428 C80.5648293,130.761174 89.0467317,120.512855 94.4392195,105.819632 L71.0243902,105.819632 L71.0243902,132.569428 Z M64.9756098,33.1803677 L64.9756098,6.43057216 C55.4351707,8.23882619 46.9532683,18.4871446 41.5607805,33.1803677 L64.9756098,33.1803677 Z M64.9756098,66.4089675 L64.9756098,39.3624328 L39.5450244,39.3624328 C37.2162439,47.5227587 35.7811707,56.7185805 35.5286341,66.4089675 L64.9756098,66.4089675 Z M64.9756098,99.6375672 L64.9756098,72.5910325 L35.5286341,72.5910325 C35.7811707,82.2814195 37.2162439,91.4772413 39.5450244,99.6375672 L64.9756098,99.6375672 Z M64.9756098,132.569428 L64.9756098,105.819632 L41.5607805,105.819632 C46.9532683,120.512855 55.4351707,130.761174 64.9756098,132.569428 Z" id="Shape" fill="#D0D1D2"></path>
            <path d="M97.7069333,6.96551278 C88.4510234,2.36703385 78.2914892,-0.0150913485 68,7.19386432e-05 C30.4443556,7.19386432e-05 0,31.1159781 0,69.500036 C0,107.884094 30.4443556,139 68,139 C105.555644,139 136,107.884094 136,69.500036 C136,62.5160618 134.992089,55.7714764 133.1168,49.4114575 L128.175467,54.398466 C129.361053,59.3408066 129.958737,64.41132 129.955556,69.500036 C129.955556,104.415273 102.161689,132.822225 68,132.822225 C33.8383111,132.822225 6.04444444,104.415273 6.04444444,69.500036 C6.04444444,34.5847985 33.8383111,6.17784652 68,6.17784652 C76.8008212,6.16713418 85.5017049,8.08409673 93.5166222,11.7996214 C94.7125576,10.0174512 96.120063,8.39369729 97.7069333,6.96551278 Z" id="Shape" fill="#151922"></path>
            <path d="M132.184972,10.8653705 C123.987119,1.71154317 109.882908,1.71154317 101.788728,10.8653705 C92.7370906,18.8530253 92.7370906,32.9536813 101.788728,41.7203519 L116.987613,57.1470588 L132.184972,41.7203519 C141.271676,32.9536813 141.271676,18.8530253 132.184972,10.8669379 L132.184972,10.8653705 Z M116.987613,33.304787 C113.11814,33.304787 110.078059,30.2200726 110.078059,26.2936449 C110.078059,22.3656498 113.11814,19.2809354 116.987613,19.2809354 C120.85556,19.2809354 123.894117,22.3656498 123.894117,26.2936449 C123.894117,30.2200726 120.85556,33.304787 116.987613,33.304787 Z" id="Shape" fill="#F64F64"></path>
            <g id="Shape-Copy">
                <use fill="#F64F64" fill-rule="evenodd" xlink:href="#path-1"></use>
                <path stroke="#FFFFFF" stroke-width="5" d="M62.9547514,62.0947707 C73.0404915,71.0819082 73.0012011,86.7941167 62.9659282,96.4748306 L45.9877018,113.70928 L44.2067445,111.901627 L29.0494555,96.516161 C19.007757,86.7905989 18.969476,71.0815441 29.018755,62.093757 C38.0919408,51.9664834 53.782729,51.9706726 62.9547514,62.0947707 Z M45.9876125,83.804787 C48.4663152,83.804787 50.3941172,81.8477541 50.3941172,79.2936449 C50.3941172,76.7381223 48.4664627,74.7809354 45.9876125,74.7809354 C43.5069125,74.7809354 41.5780585,76.7384398 41.5780585,79.2936449 C41.5780585,81.8474366 43.5070601,83.804787 45.9876125,83.804787 Z"></path>
            </g>
        </g>
    </g>
</svg>