<?xml version="1.0" encoding="UTF-8"?>
<svg width="186px" height="133px" viewBox="0 0 186 133" version="1.1" xmlns="http://www.w3.org/2000/svg" xmlns:xlink="http://www.w3.org/1999/xlink">
    <!-- Generator: Sketch 48.1 (47250) - http://www.bohemiancoding.com/sketch -->
    <title>Group 2</title>
    <desc>Created with Sketch.</desc>
    <defs></defs>
    <g id="Artboard" stroke="none" stroke-width="1" fill="none" fill-rule="evenodd" transform="translate(-887.000000, -1773.000000)">
        <g id="Group-2" transform="translate(887.000000, 1755.000000)">
            <path d="M50.6296296,45 L71.3333333,45 L71.3333333,51.3448276 L50.6296296,51.3448276 L50.6296296,45 Z M149.37037,45 L186,45 L186,51.3448276 L149.37037,51.3448276 L149.37037,45 Z M149.37037,73.5517241 L166.888889,73.5517241 L166.888889,79.8965517 L149.37037,79.8965517 L149.37037,73.5517241 Z M149.37037,102.103448 L186,102.103448 L186,108.448276 L149.37037,108.448276 L149.37037,102.103448 Z M149.37037,130.655172 L166.888889,130.655172 L166.888889,137 L149.37037,137 L149.37037,130.655172 Z M14,73.5517241 L127.074074,73.5517241 L127.074074,79.8965517 L14,79.8965517 L14,73.5517241 Z M50.6296296,102.103448 L71.3333333,102.103448 L71.3333333,108.448276 L50.6296296,108.448276 L50.6296296,102.103448 Z M14,130.655172 L127.074074,130.655172 L127.074074,137 L14,137 L14,130.655172 Z" id="Shape" fill="#D0D1D2" fill-rule="nonzero"></path>
            <text id="¥" font-family="Arial-Black, Arial Black" font-size="48" font-weight="700" fill="#F64F64">
                <tspan x="90" y="53">¥</tspan>
            </text>
            <path d="M143,39.5526316 L143,84.1315789 C143,86.5197368 142.205556,88.7486842 140.616667,90.5 C142.046667,92.2513158 143,94.4802632 143,96.8684211 L143,141.447368 C143,146.701316 138.71,151 133.466667,151 L9.53333333,151 C4.29,151 0,146.701316 0,141.447368 L0,96.8684211 C0,94.4802632 0.794444444,92.2513158 2.38333333,90.5 C0.953333333,88.7486842 0,86.5197368 0,84.1315789 L0,39.5526316 C0,34.2986842 4.29,30 9.53333333,30 L73.7244444,30 C74.2011111,32.2289474 74.8366667,34.2986842 75.79,36.3684211 L9.53333333,36.3684211 C7.78555556,36.3684211 6.35555556,37.8013158 6.35555556,39.5526316 L6.35555556,84.1315789 C6.35555556,85.8828947 7.78555556,87.3157895 9.53333333,87.3157895 L133.466667,87.3157895 C135.214444,87.3157895 136.644444,85.8828947 136.644444,84.1315789 L136.644444,39.5526316 C136.644444,37.9605263 135.532222,36.6868421 133.943333,36.3684211 C134.737778,34.4578947 135.373333,32.3881579 135.85,30.3184211 C139.981111,31.4328947 143,35.0947368 143,39.5526316 Z M136.644444,141.447368 L136.644444,96.8684211 C136.644444,95.1171053 135.214444,93.6842105 133.466667,93.6842105 L9.53333333,93.6842105 C7.78555556,93.6842105 6.35555556,95.1171053 6.35555556,96.8684211 L6.35555556,141.447368 C6.35555556,143.198684 7.78555556,144.631579 9.53333333,144.631579 L133.466667,144.631579 C135.214444,144.631579 136.644444,143.198684 136.644444,141.447368 Z M17.4777778,50.6973684 C15.7227396,50.6973684 14.3,49.2717488 14.3,47.5131579 C14.3,45.754567 15.7227396,44.3289474 17.4777778,44.3289474 C19.232816,44.3289474 20.6555556,45.754567 20.6555556,47.5131579 C20.6555556,49.2717488 19.232816,50.6973684 17.4777778,50.6973684 Z M28.6,50.6973684 C26.8449618,50.6973684 25.4222222,49.2717488 25.4222222,47.5131579 C25.4222222,45.754567 26.8449618,44.3289474 28.6,44.3289474 C30.3550382,44.3289474 31.7777778,45.754567 31.7777778,47.5131579 C31.7777778,49.2717488 30.3550382,50.6973684 28.6,50.6973684 Z M39.7222222,50.6973684 C37.967184,50.6973684 36.5444444,49.2717488 36.5444444,47.5131579 C36.5444444,45.754567 37.967184,44.3289474 39.7222222,44.3289474 C41.4772604,44.3289474 42.9,45.754567 42.9,47.5131579 C42.9,49.2717488 41.4772604,50.6973684 39.7222222,50.6973684 Z M17.4777778,108.013158 C15.7227396,108.013158 14.3,106.587538 14.3,104.828947 C14.3,103.070356 15.7227396,101.644737 17.4777778,101.644737 C19.232816,101.644737 20.6555556,103.070356 20.6555556,104.828947 C20.6555556,106.587538 19.232816,108.013158 17.4777778,108.013158 Z M28.6,108.013158 C26.8449618,108.013158 25.4222222,106.587538 25.4222222,104.828947 C25.4222222,103.070356 26.8449618,101.644737 28.6,101.644737 C30.3550382,101.644737 31.7777778,103.070356 31.7777778,104.828947 C31.7777778,106.587538 30.3550382,108.013158 28.6,108.013158 Z M39.7222222,108.013158 C37.967184,108.013158 36.5444444,106.587538 36.5444444,104.828947 C36.5444444,103.070356 37.967184,101.644737 39.7222222,101.644737 C41.4772604,101.644737 42.9,103.070356 42.9,104.828947 C42.9,106.587538 41.4772604,108.013158 39.7222222,108.013158 Z" id="Shape" fill="#151922" fill-rule="nonzero"></path>
        </g>
    </g>
</svg>