<?xml version="1.0" encoding="UTF-8"?>
<svg width="135px" height="145px" viewBox="0 0 135 145" version="1.1" xmlns="http://www.w3.org/2000/svg" xmlns:xlink="http://www.w3.org/1999/xlink">
    <!-- Generator: Sketch 48.1 (47250) - http://www.bohemiancoding.com/sketch -->
    <title>download</title>
    <desc>Created with Sketch.</desc>
    <defs></defs>
    <g id="Artboard" stroke="none" stroke-width="1" fill="none" fill-rule="evenodd" transform="translate(-1360.000000, -1760.000000)">
        <g id="download" transform="translate(1360.000000, 1760.000000)" fill-rule="nonzero">
            <path d="M63.7078652,0 L69.7752809,0 L69.7752809,15.4347826 L63.7078652,15.4347826 L63.7078652,0 Z M15.1685393,64.826087 L15.1685393,71 L0,71 L0,64.826087 L15.1685393,64.826087 Z M135,64.826087 L135,71 L119.831461,71 L119.831461,64.826087 L135,64.826087 Z M30.3370787,26.4552174 L26.0474157,30.8217174 L15.3217416,19.9077826 L19.6114045,15.5412826 L30.3370787,26.4552174 Z" id="Shape" fill="#D0D1D2"></path>
            <path d="M50.9830508,126.677226 L83.0169492,126.677226 L83.0169492,132.784817 L50.9830508,132.784817 L50.9830508,126.677226 Z M55.559322,138.892409 L78.440678,138.892409 L78.440678,145 L55.559322,145 L55.559322,138.892409 Z M104.830508,59.1883409 C106.966102,58.8829613 108.949153,58.2722022 110.779661,57.5087533 C111.542373,60.8679285 112,64.3797936 112,67.8916586 C112,85.9090532 101.322034,101.483411 86.0677966,108.659831 L86.0677966,120.569634 L47.9322034,120.569634 L47.9322034,108.659831 C32.6779661,101.483411 22,85.9090532 22,67.8916586 C22,43.0032237 42.1355932,22.8481721 67,23.0008619 C69.2881356,23.0008619 71.4237288,23.1535516 73.559322,23.4589312 C72.9491525,25.2912086 72.6440678,27.2761758 72.4915254,29.4138328 C70.6610169,29.1084533 68.8305085,28.9557635 67,28.9557635 C45.4915254,28.9557635 28.1016949,46.362399 28.1016949,67.8916586 C28.1016949,82.8552575 36.9491525,96.750028 50.5254237,103.162999 L54.0338983,104.842587 L54.0338983,114.462043 L79.9661017,114.462043 L79.9661017,104.842587 L83.4745763,103.162999 C97.0508475,96.750028 105.898305,82.8552575 105.898305,67.8916586 C105.898305,64.9905527 105.440678,61.936757 104.830508,59.1883409 Z M77.0677966,91.1005059 L67.7627119,83.3133269 L58.4576271,91.1005059 L45.7966102,78.4272538 L50.0677966,74.1519398 L58.7627119,82.8552575 L67.7627119,75.3734581 L76.7627119,82.8552575 L85.4576271,74.1519398 L89.7288136,78.4272538 L77.0677966,91.1005059 Z" id="Shape" fill="#151922"></path>
            <path d="M100.5,54 C88.626069,54 79,44.150069 79,32 C79,19.849931 88.626069,10 100.5,10 C112.373931,10 122,19.849931 122,32 C122,44.150069 112.373931,54 100.5,54 Z M97.8310345,33.9724138 L92.4931034,28.5103448 L89.3793103,31.6965517 L94.5689655,37.1586207 L97.8310345,40.3448276 L111.324138,26.3862069 L108.210345,23.2 L97.8310345,33.9724138 Z" id="Shape" fill="#F64F64"></path>
        </g>
    </g>
</svg>