<?xml version="1.0" ?><!DOCTYPE svg  PUBLIC '-//W3C//DTD SVG 1.1//EN'  'http://www.w3.org/Graphics/SVG/1.1/DTD/svg11.dtd'><svg height="2048px" style="shape-rendering:geometricPrecision; text-rendering:geometricPrecision; image-rendering:optimizeQuality; fill-rule:evenodd; clip-rule:evenodd" viewBox="0 0 2048 2048" width="2048px" xml:space="preserve" xmlns="http://www.w3.org/2000/svg" xmlns:xlink="http://www.w3.org/1999/xlink"><defs><style type="text/css">
   <![CDATA[
    .fil2 {fill:none}
    .fil0 {fill:#424242}
    .fil1 {fill:#424242;fill-rule:nonzero}
   ]]>
  </style></defs><g id="Layer_x0020_1"><path class="fil0" d="M1518.27 345.089l-107.782 107.782c-10.9287,10.9299 -28.6642,10.9299 -39.5929,0 -10.9299,-10.9287 -10.9299,-28.6642 0,-39.5929l107.782 -107.782c10.9287,-10.9299 28.6642,-10.9299 39.5929,0 10.9299,10.9287 10.9299,28.6642 0,39.5929z"/><path class="fil0" d="M563.357 305.496l107.782 107.782c10.9299,10.9287 10.9299,28.6642 0,39.5929 -10.9287,10.9299 -28.6642,10.9299 -39.5929,0l-107.782 -107.782c-10.9299,-10.9287 -10.9299,-28.6642 0,-39.5929 10.9287,-10.9299 28.6642,-10.9299 39.5929,0z"/><path class="fil1" d="M300.758 773.333c17.6445,-17.2134 41.967,-27.8634 68.7792,-27.8634 26.8169,0 51.1382,10.6488 68.7804,27.861 17.7685,17.3351 28.7575,41.2713 28.7575,67.689l0 318.219c0,26.4236 -10.9913,50.3599 -28.7575,67.6973 -17.6433,17.2158 -41.967,27.8658 -68.7804,27.8658 -26.8134,0 -51.137,-10.65 -68.7804,-27.867 -17.7673,-17.3362 -28.7587,-41.2737 -28.7587,-67.6961l0 -318.219c0,-26.4177 10.9925,-50.3528 28.7599,-67.6867z"/><path class="fil1" d="M1678.46 745.47c26.8122,0 51.1347,10.65 68.7792,27.8634 17.7673,17.3339 28.7599,41.2689 28.7599,67.6867l-0.0625985 0 0.0011811 318.219 0.0625985 0c0,26.4225 -10.9913,50.3599 -28.7587,67.6961 -17.6445,17.2169 -41.967,27.867 -68.7827,27.867 -26.8134,0 -51.137,-10.65 -68.7792,-27.8658 -17.7673,-17.3362 -28.7575,-41.2737 -28.7575,-67.6973l0 -318.219c0,-26.4166 10.9913,-50.3516 28.7587,-67.6867 17.6433,-17.2146 41.9646,-27.8634 68.7792,-27.8634z"/><path class="fil1" d="M514.764 1328.15l0 -581.242 0 -16.0004 16.0004 0 986.472 0 16.0004 0 0 16.0004 0 581.242c0,29.8784 -13.3973,53.752 -31.1421,71.7591 -27.0118,27.4099 -65.9044,41.1166 -80.328,41.1166l-111.292 0 0 226.188c0,26.6953 -10.9429,50.8796 -28.6335,68.3918 -17.6799,17.504 -42.0461,28.3323 -68.9044,28.3323 -26.8583,0 -51.2256,-10.8295 -68.9056,-28.3323 -17.6894,-17.5134 -28.6335,-41.6965 -28.6335,-68.3918l0 -226.188 -190.749 0 0 226.188c0,26.6953 -10.9453,50.8772 -28.6382,68.3906 -17.6823,17.504 -42.0544,28.3335 -68.9127,28.3335 -26.8559,0 -51.2233,-10.8284 -68.9056,-28.3323 -17.6894,-17.5134 -28.6335,-41.6965 -28.6335,-68.3918l0 -226.188 -103.324 0c-14.4236,0 -53.3162,-13.7067 -80.328,-41.1166 -17.7449,-18.0071 -31.1421,-41.8807 -31.1421,-71.7591z"/><path class="fil0" d="M1408.1 438.284l-23.3043 -21.9461 -11.7945 -11.1083 -0.812599 -0.687402c-46.4185,-38.0658 -101.027,-68.6245 -161.264,-89.4343 -57.991,-20.0351 -121.07,-31.0488 -186.931,-31.0488 -68.1603,0 -133.211,11.7284 -192.636,32.9906 -61.8615,22.1351 -117.632,54.6036 -164.49,94.9371l-0.750001 0.750001 -6.30473 6.1878 -22.839 22.4114 -13.7882 13.5307 -0.687402 0.750001c-34.3453,38.478 -61.6193,81.9674 -80.1131,128.984 -14.2583,36.2492 -23.328,74.5784 -26.4295,114.308l1016.08 0c-3.2067,-41.0469 -12.7831,-80.6032 -27.8776,-117.921 -19.4551,-48.0957 -48.117,-92.4213 -84.1347,-131.372l-0.750001 -0.812599 -11.1709 -10.5189zm-237.556 44.1248c14.4154,-14.4142 34.3299,-23.3292 56.3185,-23.3292 21.9886,0 41.9008,8.91733 56.3138,23.3303 14.413,14.413 23.3303,34.3264 23.3303,56.315 0,21.9886 -8.91733,41.902 -23.3303,56.3138 -14.4118,14.413 -34.3229,23.3303 -56.3138,23.3303l0 -0.0625985c-22.0288,-0.0011811 -41.9398,-8.89489 -56.3162,-23.2689 -14.413,-14.4118 -23.3303,-34.324 -23.3303,-56.3126 0,-21.9933 8.91733,-41.9032 23.328,-56.3162zm-357.365 -23.3292c21.9945,0 41.9044,8.91497 56.3174,23.328 14.413,14.413 23.3292,34.3288 23.3292,56.3174 0,21.991 -8.91615,41.9044 -23.3292,56.3174 -14.4106,14.4106 -34.3229,23.3268 -56.3174,23.3268 -21.9898,0 -41.8996,-8.91733 -56.3079,-23.3292 -14.4106,-14.4142 -23.3256,-34.3264 -23.3256,-56.315 0,-21.9933 8.91261,-41.9055 23.3232,-56.3185 14.4095,-14.413 34.3205,-23.3268 56.3103,-23.3268z"/><path class="fil0" d="M860.828 538.725c0,-13.1575 -5.33268,-25.0713 -13.9536,-33.6922 -8.61969,-8.61969 -20.5311,-13.9524 -33.6922,-13.9524 -13.1563,0 -25.0677,5.3315 -33.6851,13.9512 -8.61733,8.61969 -13.9476,20.5311 -13.9476,33.6933 0,13.1575 5.3315,25.0701 13.95,33.6898 8.61851,8.61969 20.5288,13.9536 33.6827,13.9536 13.161,0 25.0736,-5.33268 33.6922,-13.9512 8.62087,-8.62087 13.9536,-20.5347 13.9536,-33.6922z"/><path class="fil0" d="M1274.51 538.725c0,-13.1551 -5.33386,-25.0689 -13.9547,-33.6898 -8.62087,-8.62087 -20.5335,-13.9547 -33.6886,-13.9547 -13.1575,0 -25.0725,5.33268 -33.6933,13.9536 -8.61851,8.61969 -13.9524,20.5323 -13.9524,33.691 0,13.1551 5.33386,25.0677 13.9547,33.6874 8.66103,8.65985 20.5784,14.0185 33.691,14.0185l0 -0.0625985c13.1563,0 25.0689,-5.33386 33.6886,-13.9547 8.62087,-8.61969 13.9547,-20.5323 13.9547,-33.6886z"/></g><rect class="fil2" height="2048" width="2048"/></svg>