<svg xmlns="http://www.w3.org/2000/svg" width="160" height="56" viewBox="0 0 160 56"><g fill="none" fill-rule="evenodd"><rect width="160" height="56" fill="#2C3038" rx="3"/><path fill="#FFF" d="M39.356 31.251l.997.377-.438.97c-.517 1.144-.774 1.671-1.438 2.678-1.124 1.713-2.538 3.466-4.499 3.484-1.627.011-1.847-.8-3.589-.882-1.595.01-1.955.886-3.598.886h-.039c-2.007-.018-3.424-1.785-4.435-3.323-2.55-3.882-3.059-8.767-1.208-11.616 1.24-1.91 3.247-3.098 5.237-3.098 1.03 0 1.832.286 2.54.538.54.192 1.006.358 1.478.358.414 0 .791-.142 1.27-.323.676-.256 1.52-.574 2.734-.574 1.753 0 3.55.934 4.804 2.497l.747.93-1.046.573c-1.258.689-1.95 1.943-1.85 3.355.1 1.449.995 2.664 2.333 3.17zm-6.254-13.037c-.696.893-1.895 1.585-3.053 1.549-.21-1.152.332-2.336.99-3.135.725-.88 1.965-1.555 3.027-1.628.18 1.203-.314 2.38-.964 3.214zm31.922 4.818h-5.376l-.992 2.688H56l4.784-12.528h3.12l4.8 12.528h-2.672l-1.008-2.688zm-4.528-2.4h3.648l-1.824-4.928-1.824 4.928zm11.824-3.456v1.056h.032c.816-1.104 2.016-1.216 2.608-1.216 2.512 0 4.064 2.256 4.064 4.416 0 2.224-1.648 4.448-4.128 4.448-.608 0-1.728-.128-2.528-1.104h-.032v5.168H69.84V17.176h2.48zm-.048 4.256c0 1.296.944 2.192 2.112 2.192 1.168 0 2.112-.896 2.112-2.192 0-1.28-.944-2.16-2.128-2.16-1.152 0-2.096.88-2.096 2.16zm11.024-4.256v1.056h.032c.816-1.104 2.016-1.216 2.608-1.216 2.512 0 4.064 2.256 4.064 4.416 0 2.224-1.648 4.448-4.128 4.448-.608 0-1.728-.128-2.528-1.104h-.032v5.168h-2.496V17.176h2.48zm-.048 4.256c0 1.296.944 2.192 2.112 2.192 1.168 0 2.112-.896 2.112-2.192 0-1.28-.944-2.16-2.128-2.16-1.152 0-2.096.88-2.096 2.16zm17.008 4.48c-3.008 0-4.624-1.52-5.024-3.888l2.416-.576c.208 1.376 1.312 2.128 2.688 2.128 1.2 0 1.888-.64 1.888-1.408 0-.624-.56-1.136-1.424-1.312l-1.776-.352c-2.032-.4-3.344-1.696-3.344-3.6 0-2.24 2.032-3.904 4.432-3.904 2.896 0 4.304 1.728 4.528 3.328l-2.352.704c-.208-.976-.912-1.712-2.192-1.712-1.072 0-1.824.656-1.824 1.392 0 .592.384 1.12 1.296 1.296l1.744.32c2.32.416 3.536 1.904 3.536 3.68 0 1.936-1.632 3.904-4.592 3.904zm9.728-6.576v3.248c0 .656.368 1.088 1.2 1.088.368 0 .432-.016.88-.064v2.032c-.576.176-1.2.192-1.488.192-2.64 0-3.088-1.728-3.088-3.12v-3.376h-1.664v-2.16h1.696v-2.672h2.464v2.672h2.112v2.16h-2.112zm3.344 2.128c0-2.544 2.096-4.48 4.688-4.48 2.576 0 4.64 1.888 4.64 4.432 0 2.576-2.096 4.496-4.672 4.496-2.592 0-4.656-1.872-4.656-4.448zm2.56-.032c0 1.296.944 2.192 2.112 2.192 1.168 0 2.096-.896 2.096-2.192 0-1.28-.944-2.176-2.112-2.176-1.168 0-2.096.896-2.096 2.176zm13.824-4.256v2.448c-.336-.064-.688-.064-.8-.064-1.2 0-2.032.832-2.032 2.416v3.744h-2.448v-8.544h2.368v1.248h.032c.464-.976 1.328-1.344 2.208-1.344.192 0 .496.048.672.096zm3.376 3.312h3.68c-.048-.624-.576-1.488-1.824-1.488-1.12 0-1.76.928-1.856 1.488zm6.144 1.648h-6.208c.16 1.072 1.072 1.68 2.112 1.68.72 0 1.52-.432 1.808-1.136l2.048.704c-.56 1.648-2.144 2.528-3.824 2.528-2.592 0-4.688-1.824-4.688-4.48 0-2.464 2.064-4.464 4.528-4.464 2.544 0 4.256 1.744 4.256 4.272 0 .304 0 .608-.032.896zM62.323 43.757h-.902v-7.909H58v-.814h8.217v.814h-3.894v1.859l.264-.363c.858.561 2.09 1.573 2.651 2.123l-.649.737a19 19 0 0 0-2.266-2.002v5.555zm5.742-8.91h2.057v-.836h1.012v.836h1.903v.946h-1.903v.792h2.398A47.008 47.008 0 0 1 73.466 34h1.012c0 .957.022 1.815.066 2.585h2.684v.957h-2.629c.066.913.154 1.65.264 2.222.044.198.077.396.121.583.319-.726.583-1.529.792-2.42l.935.418c-.341 1.342-.781 2.475-1.32 3.399.066.176.143.341.22.484.264.506.462.77.605.77.11 0 .231-.539.352-1.606l.891.473c-.253 1.463-.627 2.2-1.122 2.2-.396 0-.814-.33-1.276-.99a3.714 3.714 0 0 1-.264-.451 6.187 6.187 0 0 1-1.848 1.573l-.561-.836c.77-.418 1.419-1.034 1.958-1.848a12.607 12.607 0 0 1-.407-1.518 16.482 16.482 0 0 1-.341-2.453h-6.105v-.957h2.629v-.792h-2.057v-.946zm7.535-.737c.55.616.979 1.155 1.276 1.617l-.781.55c-.308-.495-.737-1.045-1.287-1.661l.792-.506zm-2.563 7.711v.902c-.528.066-1.067.132-1.628.198v1.243h-1.023v-1.133c-.759.066-1.551.132-2.376.198l-.121-.968c.88-.044 1.705-.099 2.497-.165v-.803h-2.035l-.198-.836c.264-.319.506-.704.737-1.166h-1.067v-.924h1.474c.088-.242.165-.484.253-.737l.99.187c-.066.198-.132.374-.198.55h2.75v.924h-3.135a9.896 9.896 0 0 1-.638 1.133h1.067v-.726h1.023v.726h1.573v.869h-1.573v.704c.572-.055 1.111-.11 1.628-.176z"/></g></svg>