<svg xmlns="http://www.w3.org/2000/svg" width="168" height="56" viewBox="0 0 168 56"><g fill="none" fill-rule="evenodd"><rect width="168" height="56" fill="#2C3038" rx="3"/><g fill-rule="nonzero"><path fill="#F49C71" d="M37.688 31.765l5.559-3.043c.628-.344 1.286-1.221 0-1.923l-5.562-3.034-3.982 4.012 3.985 3.988z"/><path fill="#D54A6D" d="M33.703 27.777L20.967 40.61c.288.036.634-.04 1.032-.258l15.69-8.588-3.986-3.987z"/><path fill="#ADD69E" d="M33.703 27.777l3.981-4.012L22 15.207c-.341-.186-.712-.25-1.041-.178l12.745 12.748z"/><path fill="#24B9C2" d="M33.703 27.777L20.958 15.03c-.527.117-.958.573-.958 1.488V39.08c0 .863.34 1.47.967 1.53l12.736-12.833z"/></g><path fill="#FFF" d="M69.12 34.264v.976c0 3.904-2.88 5.952-5.936 5.952-3.872 0-6.496-2.88-6.496-6.448 0-3.648 2.96-6.464 6.528-6.464 3.12 0 5.104 1.824 5.632 3.824l-2.528.768c-.272-1.072-1.44-2.128-3.136-2.128-2.112 0-3.856 1.712-3.856 3.984 0 2.176 1.584 4 3.856 4 1.696 0 2.928-.88 3.232-2.112h-3.808v-2.352h6.512zm1.216 2.48c0-2.544 2.096-4.48 4.688-4.48 2.576 0 4.64 1.888 4.64 4.432 0 2.576-2.096 4.496-4.672 4.496-2.592 0-4.656-1.872-4.656-4.448zm2.56-.032c0 1.296.944 2.192 2.112 2.192 1.168 0 2.096-.896 2.096-2.192 0-1.28-.944-2.176-2.112-2.176-1.168 0-2.096.896-2.096 2.176zm8.016.032c0-2.544 2.096-4.48 4.688-4.48 2.576 0 4.64 1.888 4.64 4.432 0 2.576-2.096 4.496-4.672 4.496-2.592 0-4.656-1.872-4.656-4.448zm2.56-.032c0 1.296.944 2.192 2.112 2.192 1.168 0 2.096-.896 2.096-2.192 0-1.28-.944-2.176-2.112-2.176-1.168 0-2.096.896-2.096 2.176zm17.136-4.256v8.416c0 2.944-1.984 4.4-4.608 4.4-2.736 0-4.176-1.504-4.496-3.072l2.288-.704c.224.8.736 1.6 2.192 1.6 1.152 0 2.144-.624 2.144-2.16v-1.072h-.032C97.328 40.856 96.24 41 95.632 41c-2.464 0-4.128-1.92-4.128-4.32 0-2.16 1.568-4.352 4.032-4.352.528 0 1.712.112 2.592 1.168h.032v-1.04h2.448zm-2.416 4.224c0-1.264-.912-2.128-2.08-2.128-1.152 0-2.08.88-2.08 2.128 0 1.28.912 2.144 2.08 2.144 1.152 0 2.08-.864 2.08-2.144zm4.736-8.72h2.512V41h-2.512V27.96zm6.896 7.808h3.68c-.048-.624-.576-1.488-1.824-1.488-1.12 0-1.76.928-1.856 1.488zm6.144 1.648h-6.208c.16 1.072 1.072 1.68 2.112 1.68.72 0 1.52-.432 1.808-1.136l2.048.704c-.56 1.648-2.144 2.528-3.824 2.528-2.592 0-4.688-1.824-4.688-4.48 0-2.464 2.064-4.464 4.528-4.464 2.544 0 4.256 1.744 4.256 4.272 0 .304 0 .608-.032.896zm15.264-4.928c0 2.768-1.952 4.096-4.576 4.096h-1.968V41h-2.592V28.472h4.656c2.512 0 4.48 1.36 4.48 4.016zm-2.608.064c0-1.216-1.024-1.632-2.096-1.632h-1.84v3.248h1.856c1.024 0 2.08-.448 2.08-1.616zm4.24-4.592h2.512V41h-2.512V27.96zm7.168 13.2c-1.488 0-2.832-.96-2.832-2.544v-.064c0-2.048 2.096-2.624 3.76-2.624h.832c.464 0 .672-.24.672-.592 0-.544-.448-1.056-1.344-1.056-.768 0-1.344.448-1.536 1.168l-2.192-.496c.288-1.824 2.048-2.688 3.84-2.688 2.128 0 3.68 1.136 3.68 3.44V41h-2.304v-1.056l-.032-.016c-.64.912-1.616 1.232-2.544 1.232zm.72-1.824c1.104 0 1.696-.784 1.696-1.648v-.192h-1.488c-.512 0-1.248.304-1.248.976 0 .608.512.864 1.04.864zm6.608 5.872l2.096-5.12-3.6-7.632h2.752l2.128 4.88 1.904-4.88h2.576l-5.184 12.752h-2.672zm-85.816-22.38h-1.26v-8.616h-3.72V13.06h9.252v1.152h-4.272v1.884l.36-.456c1.056.696 2.388 1.824 3.06 2.46l-.924 1.032c-.756-.768-1.608-1.584-2.496-2.28v5.976zm6.132-9.84h2.196v-.876h1.224v.876h2.028v1.128h-2.028v.768h2.496a50.248 50.248 0 0 1-.072-2.784h1.212c0 1.032.024 1.968.072 2.784h2.892v1.14h-2.82c.06.972.156 1.752.276 2.352l.096.468c.324-.744.588-1.56.804-2.472l1.116.504c-.372 1.452-.852 2.676-1.428 3.672.072.18.132.336.204.468.276.54.48.816.624.816.108 0 .228-.564.348-1.692l1.056.576c-.288 1.596-.696 2.4-1.248 2.4-.444 0-.924-.36-1.428-1.08-.096-.144-.192-.288-.264-.444a6.435 6.435 0 0 1-1.968 1.668l-.684-1.008c.816-.456 1.524-1.116 2.1-1.98-.168-.48-.312-1.02-.432-1.608a19.23 19.23 0 0 1-.384-2.64h-6.612v-1.14h2.82v-.768h-2.196v-1.128zm8.28-.78c.6.672 1.068 1.26 1.392 1.764l-.924.648c-.348-.54-.816-1.14-1.416-1.812l.948-.6zm-2.832 8.388v1.08c-.552.072-1.128.144-1.728.216v1.32h-1.224v-1.2c-.816.072-1.668.144-2.544.216l-.144-1.152a77.572 77.572 0 0 0 2.688-.18v-.792H68l-.252-.996a6.78 6.78 0 0 0 .768-1.188h-1.104v-1.104h1.572c.096-.252.18-.504.264-.756l1.188.228c-.072.18-.132.36-.192.528h2.94v1.104h-3.396c-.204.408-.42.792-.636 1.14h1.02v-.72h1.224v.72h1.668v1.044h-1.668v.684c.612-.06 1.188-.12 1.728-.192zm7.884.984h4.932c.684-1.656 1.284-3.684 1.8-6.084l1.248.348c-.456 2.136-1.02 4.044-1.692 5.736h2.292v1.224h-8.58V21.58zm1.56-5.496c.48 1.272.9 2.724 1.284 4.368l-1.188.312c-.312-1.5-.696-2.94-1.176-4.32l1.08-.36zm2.292-.876c.408 1.32.78 2.82 1.104 4.512l-1.188.3a42.299 42.299 0 0 0-.996-4.452l1.08-.36zm.084-3.144c.18.336.36.72.528 1.14h4.296v1.212H81.02v2.448c-.036 2.664-.42 4.8-1.14 6.408l-1.068-.948c.6-1.308.912-3.132.936-5.46v-3.66h4.332a8.115 8.115 0 0 0-.54-.9l1.404-.24zm11.64 10.452H95.36V19.3h-2.088c-.036.24-.06.492-.096.708-.156 1.008-.456 1.908-1.068 2.796L91.1 22.06c.528-.828.756-1.464.876-2.256.144-.84.144-1.812.144-3.252v-3.48h7.908v8.364c0 .876-.348 1.188-1.224 1.188-.276 0-.84-.024-1.188-.06l-.288-1.2c.42.084.744.096.984.096.312 0 .492-.048.492-.324V19.3h-2.22v3.216zm0-5.76v1.464h2.22v-1.464h-2.22zm2.22-2.568h-2.22v1.464h2.22v-1.464zm-5.46 2.568c0 .504-.012.996-.024 1.464h2.04v-1.464h-2.016zm0-2.568v1.464h2.016v-1.464h-2.016zm11.616 8.94l.468-2.424h1.512l-.852 2.424h-1.128zm13.356-10.98h1.212v.66h2.844v1.008h-2.844v.504h2.424v.984h-2.424v.516h3.132v1.032h-7.44V15.82h3.096v-.516h-2.256v-.984h2.256v-.504h-2.76v-1.008h2.76v-.66zm-1.092 7.728v.588h3.432v-.588h-3.432zm3.432-.936v-.6h-3.432v.6h3.432zm-3.432 2.472v1.836h-1.176v-5.916h5.808v4.68c0 .768-.396 1.164-1.176 1.164h-.996l-.3-1.092.948.048c.216 0 .324-.132.324-.384v-.336h-3.432zm-3.948-9.18a15.744 15.744 0 0 1 1.944 1.74l-.864.864c-.456-.552-1.116-1.128-1.968-1.752l.888-.852zm-1.704 3.456h2.808v4.896c.288-.276.576-.576.876-.888l.336 1.32a18.732 18.732 0 0 1-2.268 1.908l-.468-1.128a.871.871 0 0 0 .312-.672v-4.236h-1.596v-1.2zm18.252 1.308l-1.008.6-.408-.816c-1.392.228-2.988.396-4.5.588l-.228-1.152c.276-.012.576-.036.876-.06.372-.792.744-1.68.912-2.268h-1.62V12.82h5.556v1.068h-2.736c-.24.804-.528 1.488-.804 2.148.684-.06 1.368-.144 2.016-.216a20.41 20.41 0 0 0-.684-1.08l1.02-.516c.588.888 1.164 1.848 1.608 2.772zm-.24 3.78l.06.984c-1.56.288-3.768.588-5.724.816l-.228-1.152c.72-.06 1.536-.12 2.364-.216v-1.656h-1.944v-1.044h1.944v-1.26h1.224v1.26h1.896v1.044h-1.896v1.524c.816-.096 1.608-.18 2.304-.3zm3.396-8.4v8.976c0 .888-.408 1.296-1.5 1.296-.372 0-.636-.024-.984-.048l-.312-1.2c.456.06.864.108 1.152.108.348 0 .468-.132.468-.396v-8.736h1.176zm-1.968 7.824h-1.14v-7.08h1.14v7.08z"/></g></svg>