<?xml version="1.0" encoding="UTF-8"?>
<svg width="820px" height="665px" viewBox="0 0 820 665" version="1.1" xmlns="http://www.w3.org/2000/svg" xmlns:xlink="http://www.w3.org/1999/xlink">
    <!-- Generator: Sketch 48.1 (47250) - http://www.bohemiancoding.com/sketch -->
    <title>cf518919a9bf9046053ea833a30b685c</title>
    <desc>Created with Sketch.</desc>
    <defs></defs>
    <g id="Page-1" stroke="none" stroke-width="1" fill="none" fill-rule="evenodd">
        <g id="cf518919a9bf9046053ea833a30b685c" fill="#424242">
            <path d="M484.676,0.15 C413.445,109.087 372.941,230.603 357.574,359.107 L507.727,359.107 C495.156,407.993 487.473,456.181 486.078,503.673 C565.688,495.989 635.52,475.052 678.137,447.802 L703.277,479.927 C644.605,514.146 568.484,536.497 486.078,544.876 C487.336,569.716 490.152,593.798 494.465,617.728 C495.047,620.896 495.633,624.06 496.277,627.224 C496.324,627.462 496.371,627.7 496.418,627.943 C498.961,640.341 501.996,652.696 505.473,664.997 L819.199,664.997 L819.199,0.15 L484.676,0.15 Z M553.117,199.177 L595.723,199.177 L595.723,100.708 L553.117,100.708 L553.117,199.177 Z" id="Fill-1"></path>
            <path d="M442.227,549.251 C442.125,548.114 442.07,547.556 442.07,547.681 C334.527,551.861 218.59,531.618 120.832,482.712 L141.074,450.607 C152.406,455.939 163.941,460.841 175.629,465.357 C176.184,465.571 176.738,465.798 177.293,466.009 C181.738,467.708 186.211,469.329 190.695,470.915 C198.582,473.704 206.523,476.337 214.52,478.779 C223.855,481.626 233.254,484.243 242.699,486.634 C242.773,486.654 242.844,486.673 242.918,486.693 C244.535,487.099 246.156,487.482 247.773,487.88 C249.336,488.259 250.895,488.654 252.453,489.025 C253.367,489.239 254.285,489.439 255.199,489.65 C257.469,490.177 259.738,490.704 262.012,491.204 C263.359,491.501 264.711,491.779 266.059,492.064 C267.902,492.458 269.746,492.861 271.59,493.239 C273.242,493.575 274.898,493.888 276.555,494.216 C278.098,494.517 279.637,494.833 281.18,495.122 C283.418,495.548 285.66,495.943 287.898,496.341 C288.863,496.513 289.824,496.696 290.785,496.864 C295.328,497.654 299.875,498.376 304.418,499.071 C307.199,499.497 309.98,499.907 312.762,500.298 C317.844,501.009 322.926,501.669 328.004,502.267 C328.406,502.314 328.812,502.368 329.215,502.415 C367.594,506.857 405.664,508.032 442.062,506.458 C443.051,471.993 446.645,437.29 452.551,403.095 L306.598,403.095 C307.117,397.146 307.703,391.232 308.324,385.337 C308.465,384.029 308.609,382.724 308.75,381.415 C309.289,376.493 309.859,371.591 310.469,366.704 C310.602,365.638 310.727,364.568 310.863,363.505 C311.617,357.595 312.414,351.704 313.27,345.849 C313.336,345.388 313.414,344.927 313.48,344.462 C314.234,339.361 315.031,334.282 315.859,329.224 C316.156,327.4 316.465,325.579 316.773,323.763 C317.406,320.029 318.062,316.306 318.738,312.591 C319.117,310.509 319.484,308.423 319.875,306.349 C320.754,301.693 321.664,297.052 322.605,292.431 C323.34,288.833 324.109,285.259 324.879,281.685 C325.188,280.263 325.492,278.837 325.805,277.415 C348.25,175.505 386.207,82.712 436.047,0.15 L0,0.15 L0,665.001 L458.297,665.001 C448.859,627.931 443.68,588.962 442.227,549.251 Z M198.348,199.173 L240.934,199.173 L240.934,100.708 L198.348,100.708 L198.348,199.173 Z" id="Fill-2"></path>
        </g>
    </g>
</svg>