<svg xmlns="http://www.w3.org/2000/svg" width="32" height="22" viewBox="0 0 32 22"><g fill="none"><path fill="#F2F2F2" d="M2.58 21.677A2.556 2.556 0 0 1 0 19.097V2.58A2.556 2.556 0 0 1 2.58 0h26.84A2.556 2.556 0 0 1 32 2.58v16.517a2.556 2.556 0 0 1-2.58 2.58H2.58z"/><path fill="#D8D8D8" d="M29 1c1.1 0 2 .9 2 2v16c0 1.1-.9 2-2 2H3c-1.1 0-2-.9-2-2V3c0-1.1.9-2 2-2h26zm0-1H3C1.4 0 0 1.3 0 3v16c0 1.7 1.3 3 3 3h26c1.7 0 3-1.3 3-3V3c0-1.7-1.3-3-3-3z"/><path fill="#253B80" d="M13.341 18.636l.282-1.847-.628-.015H10L12.082 3.15a.182.182 0 0 1 .058-.107.167.167 0 0 1 .11-.042h5.052c1.676 0 2.833.36 3.438 1.071.283.334.463.682.55 1.066.092.402.094.883.004 1.47l-.006.042v.376l.283.165c.239.131.428.28.573.452.243.285.4.647.466 1.077.068.442.045.968-.067 1.563-.129.685-.338 1.281-.62 1.77a3.6 3.6 0 0 1-.983 1.11c-.374.275-.82.484-1.323.617a6.404 6.404 0 0 1-1.654.198h-.393a1.17 1.17 0 0 0-.769.291 1.239 1.239 0 0 0-.4.739l-.03.166-.497 3.254-.023.12c-.006.037-.016.056-.031.07a.082.082 0 0 1-.052.019h-2.427z"/><path fill="#179BD7" d="M21.078 7c-.015.1-.032.201-.051.306-.666 3.53-2.945 4.75-5.856 4.75H13.69a.727.727 0 0 0-.712.628l-.758 4.967-.215 1.408a.388.388 0 0 0 .374.453h2.628a.639.639 0 0 0 .625-.55l.026-.138.494-3.242.032-.178a.639.639 0 0 1 .625-.551h.393c2.546 0 4.54-1.067 5.122-4.156.244-1.29.118-2.367-.526-3.124a2.525 2.525 0 0 0-.72-.573z"/><path fill="#222D65" d="M20.403 6.247a5.12 5.12 0 0 0-.647-.149A7.978 7.978 0 0 0 18.449 6H14.49a.612.612 0 0 0-.273.064.65.65 0 0 0-.35.487l-.843 5.506-.024.161a.727.727 0 0 1 .711-.63h1.482c2.91 0 5.19-1.22 5.855-4.749.02-.104.037-.206.052-.305a3.491 3.491 0 0 0-.697-.287z"/><path fill="#253B80" d="M14.177 7.28a.648.648 0 0 1 .35-.488.614.614 0 0 1 .274-.063h3.959c.469 0 .906.031 1.306.098a5.12 5.12 0 0 1 .797.196c.197.067.38.147.548.239.198-1.305-.002-2.193-.685-2.997C19.973 3.379 18.613 3 16.873 3h-5.05a.73.73 0 0 0-.714.63L9.005 17.395a.444.444 0 0 0 .428.518h3.119l.783-5.128.842-5.506z"/></g></svg>